<svg width="58" height="64" viewBox="0 0 58 64" fill="none" xmlns="http://www.w3.org/2000/svg">
<g opacity="0.8">
<path d="M45.055 12.0533C45.0109 12.1125 39.8315 7.23047 33.8587 6.51685C31.0839 6.18538 29.0887 6.27479 28.2158 6.45534C27.3922 6.6262 26.5849 6.77598 25.6592 7.28173C22.573 8.96925 21.612 12.0994 21.4583 13.3723C21.3121 14.5826 21.2239 15.2261 21.2402 16.1676C21.2477 16.6129 22.1879 15.3702 23.2139 14.6908C23.6536 14.3997 25.9828 12.9332 28.6526 12.3335C30.0794 12.0128 31.2127 11.9382 32.0195 11.9354C32.6233 11.9331 34.5158 11.9399 36.54 12.6091C40.4875 13.9134 42.4798 16.925 44.3027 19.6804C44.3027 19.6804 45.4801 21.6413 45.7046 23.5897C45.7643 24.1068 45.5225 24.8119 45.1756 25.099C45.0782 25.1798 45.0022 25.3797 44.3277 25.3245C43.2326 25.2351 42.253 24.7584 41.8714 24.5482C39.0897 23.0128 37.8346 21.5935 37.2888 20.9055C36.5429 19.9658 35.7135 18.9201 35.2309 17.3545C34.8568 16.1385 34.5135 15.483 33.8279 14.1708C33.7218 13.9675 33.4863 13.5318 33.0171 13.3746C32.5624 13.2219 32.1204 13.4099 31.9882 13.4663C31.6964 13.5904 31.4076 13.8069 31.0526 14.3234C30.7475 14.7677 30.084 15.7359 30.1171 17.109C30.1327 17.7452 30.3143 18.2167 30.6785 19.1599C31.1796 20.4596 31.7695 21.3737 31.9882 21.7006C32.6528 22.6944 32.8454 23.0179 33.7943 23.8984C34.2212 24.2948 35.1961 24.9309 35.0743 24.8842C34.7263 24.7504 33.8761 24.5761 32.4243 24.7618C31.3902 24.8939 30.6582 25.3137 30.1797 25.5882C29.4472 26.0085 28.3492 26.6378 27.8725 27.823C27.6295 28.4273 27.5523 29.2207 27.5169 29.1233C27.3348 28.6266 27.2762 28.4319 27.2774 27.7968C27.278 27.3976 27.2501 26.8713 27.2774 26.6139C27.3348 26.0734 27.2977 25.9817 27.3893 25.3416C27.5274 24.3734 27.7872 24.141 27.8939 23.9314C27.9554 23.8107 28.0447 23.9479 28.1851 24.0077C28.4067 24.1017 28.8364 24.2965 28.8364 24.2965C29.1665 24.4577 29.3149 24.5078 29.9692 24.6462C30.486 24.7555 30.6286 24.7299 30.9546 24.6496C31.3357 24.5556 31.5207 24.3318 31.6373 24.2179C31.7643 24.0937 31.8611 23.9029 31.9574 23.5071C31.9725 23.445 32.0282 23.1967 31.9574 22.8334C31.9226 22.6534 31.8171 22.2428 31.3026 21.6396C30.7267 20.9636 30.1124 20.6025 29.6815 20.3536C29.1282 20.0341 28.8509 19.8746 28.4345 19.8023C27.695 19.6742 27.021 19.8183 26.5959 19.9715C26.2636 20.0911 25.9393 20.197 25.5142 20.5997C25.2741 20.8275 24.9626 21.0991 24.5497 21.651C24.2017 22.1152 23.9969 22.482 23.8589 22.7998C23.4691 23.7002 23.3009 24.5579 23.2882 24.5989C23.2882 24.5989 23.3288 24.2874 23.3444 23.8238C23.3607 23.3437 23.3108 23.1979 23.2742 22.8413C23.2574 22.6756 23.1664 22.4051 23.1664 22.4051C23.3322 22.4148 23.3322 22.4148 23.5091 22.3743C23.6112 22.351 23.693 22.3014 23.8212 22.1904C24.1402 21.9141 24.32 21.6391 24.32 21.6391C24.8321 20.9545 24.8814 20.9311 25.2242 20.3838C25.27 20.3109 25.4463 19.9572 25.5983 19.4652C25.7056 19.1177 25.7903 18.8352 25.7856 18.4548C25.7822 18.1826 25.7334 17.9599 25.6923 17.8118C25.5362 17.6688 25.3802 17.5259 25.2248 17.3829C25.027 17.2747 24.719 17.1261 24.3206 17.0156C23.8827 16.8943 24.0572 16.9279 23.0498 16.8117C22.319 16.7274 21.7512 16.7542 21.4559 16.8254C21.0859 16.9154 20.9815 17.0549 20.8603 17.138C20.4247 17.437 20.4902 17.76 20.2368 17.6894C19.8598 17.584 19.4509 17.3801 18.4283 17.1688C17.7196 17.0224 17.5624 16.9791 17.1813 16.9239C17.0938 16.9114 17.1976 16.7861 17.4934 16.2809C17.8263 15.7114 17.8947 15.5644 17.8988 15.3622C17.9005 15.2911 17.9046 15.0706 17.7741 14.8724C17.585 14.5854 17.2324 14.5245 16.8078 14.4436C16.2655 14.3405 15.7296 14.2072 15.1867 14.107C14.13 13.9111 14.0186 13.8701 13.503 13.8621C13.1503 13.857 12.8522 13.8786 12.5367 14.0153C12.318 14.1098 12.1765 14.2209 11.9445 14.4134C11.3854 14.8764 11.1053 15.1082 10.8843 15.3321C10.1088 16.1163 9.47779 16.806 9.24869 17.121C9.16169 17.2235 8.90069 17.6404 8.85371 17.7178C7.32715 20.7027 6.46875 24.071 6.46875 27.6368C6.46875 39.8698 16.5677 49.7865 29.0255 49.7865C41.4833 49.7865 51.5823 39.8698 51.5823 27.6368C51.5823 21.5599 49.09 16.0548 45.055 12.0533ZM15.2546 19.0682C15.0771 19.1764 14.9211 19.1701 14.8474 19.1747C14.8474 19.1747 14.681 19.1855 14.5215 19.1479C14.2947 19.095 14.1044 18.9167 13.6114 18.2276C13.304 17.7981 13.3319 17.8198 13.224 17.5885C13.0651 17.2463 12.9659 16.9769 12.8638 16.597C12.8 16.3606 12.6968 16.0838 12.593 16.1015C12.4039 16.134 12.1104 16.4381 12.0907 16.4142C12.0721 16.392 12.6133 15.7245 12.7693 15.7877C12.7699 15.7877 12.7699 15.7871 12.7699 15.7871C12.7699 15.7871 12.8354 15.7951 12.9392 15.9238C13.0796 16.0975 13.108 16.3948 13.1364 16.507C13.1747 16.6579 13.2333 16.9296 13.5088 17.4057C13.6897 17.7178 13.7344 17.9194 14.0232 18.2674C14.3596 18.6718 14.3312 18.6883 14.5481 18.8142C14.605 18.8472 14.7894 18.9514 15.0237 18.9343C15.3793 18.9081 15.7789 18.4793 15.7551 18.5186C15.6617 18.6724 15.595 18.8609 15.2546 19.0682ZM22.6194 21.3167C22.4953 21.2654 22.319 21.1054 22.3045 21.0832C22.1235 20.8007 22.0127 20.6253 21.9263 20.4499C21.8324 20.2596 21.855 20.365 21.6734 19.9082C21.5366 19.5642 21.5574 19.4338 21.4739 19.411C21.2779 19.3575 20.985 19.7465 20.9566 19.7192C20.9345 19.6981 21.1068 19.5238 21.3196 19.2362C21.3614 19.1798 21.4177 19.1251 21.5348 19.0779C21.5424 19.075 21.569 19.0801 21.6062 19.1001C21.721 19.1622 21.761 19.3 21.7732 19.3421C21.8387 19.5631 21.9455 19.7704 22.0116 19.9914C22.1079 20.3132 22.2488 20.6355 22.2732 20.6811C22.3312 20.7899 22.3932 20.8839 22.5498 21.131C22.5829 21.1834 22.6438 21.327 22.6194 21.3167Z" fill="#EFEFEF"/>
<path d="M20.5086 22.2539C19.6757 22.2539 19 22.9174 19 23.7353C19 24.5531 19.6757 25.2166 20.5086 25.2166C21.3415 25.2166 22.0172 24.5531 22.0172 23.7353C22.0172 22.9174 21.3415 22.2539 20.5086 22.2539ZM20.5086 24.7581C19.9332 24.7581 19.4669 24.3002 19.4669 23.7353C19.4669 23.1703 19.9332 22.7124 20.5086 22.7124C21.0839 22.7124 21.5503 23.1703 21.5503 23.7353C21.5503 24.3002 21.0839 24.7581 20.5086 24.7581Z" fill="#2176C9"/>
<path d="M14.6731 20.7061C13.7277 20.7061 12.9609 21.459 12.9609 22.3873C12.9609 23.3156 13.7277 24.0686 14.6731 24.0686C15.6185 24.0686 16.3853 23.3156 16.3853 22.3873C16.3847 21.459 15.6185 20.7061 14.6731 20.7061ZM14.6731 23.548C14.0206 23.548 13.4911 23.0286 13.4911 22.3873C13.4911 21.7466 14.02 21.2266 14.6731 21.2266C15.3256 21.2266 15.8551 21.746 15.8551 22.3873C15.8546 23.0286 15.3256 23.548 14.6731 23.548Z" fill="#2176C9"/>
<path d="M22.3108 27.1386C22.3102 26.8453 22.3097 26.6972 22.2691 26.4939C22.2302 26.3014 22.1641 26.1414 22.0318 25.8219C21.9263 25.5667 21.8718 25.4374 21.8085 25.3691C21.6102 25.1561 21.3219 25.1413 21.0725 25.1122C20.4745 25.0433 19.9108 24.8013 19.3285 24.6503C18.8679 24.5313 18.6023 24.4624 18.2323 24.3536C17.8419 24.2391 17.5235 24.1366 17.3101 24.0654C17.7079 24.2243 18.1284 24.4015 18.5675 24.6002C18.7102 24.6646 18.9213 24.7637 18.9979 24.9687C19.0356 25.0701 19.0147 25.127 19.0095 25.3121C19.0089 25.3378 19.0013 25.6749 19.0849 26.0269C19.1597 26.3407 19.2832 26.5668 19.3366 26.6579C19.3731 26.72 19.474 26.8858 19.644 27.0697C19.8313 27.2725 19.9253 27.3733 20.0772 27.4399C20.188 27.4889 20.2831 27.5026 20.329 27.5908C20.3638 27.6592 20.3481 27.7304 20.329 27.8101C20.2762 28.0299 20.141 28.1723 20.1057 28.2076C20.0784 28.235 19.9427 28.3677 19.7147 28.4406C19.5535 28.4924 19.2925 28.5311 18.6673 28.317C18.1963 28.1558 17.8547 27.9656 17.7033 27.8779C17.0543 27.502 16.6274 27.109 16.3484 26.8493C15.9662 26.4933 15.7313 26.2746 15.4825 25.9027C15.3015 25.6328 15.1594 25.3509 15.1194 25.368C15.0846 25.3828 15.1472 25.6089 15.2035 25.7655C15.3798 26.2576 15.6803 26.5811 15.8044 26.712C16.2301 27.1614 16.7788 27.7349 17.7184 28.3996C18.0583 28.6399 17.8297 28.4542 18.5843 28.9344C18.9863 29.1901 19.2705 29.3826 19.5344 29.3182C19.5697 29.3097 19.6631 29.2596 19.6881 29.3182C19.7756 29.5233 19.764 29.8883 19.7577 29.8393C19.4758 29.869 19.3186 29.8228 19.115 29.7294C19.0332 29.6918 18.832 29.5927 18.5565 29.3456C18.1888 29.0158 18.0351 28.7339 17.9979 28.7555C17.9637 28.7755 18.0646 29.0283 18.1934 29.2356C18.3378 29.4674 18.4979 29.6115 18.5843 29.6884C18.7734 29.8559 18.9462 29.9538 19.0454 30.0039C19.227 30.0962 19.3325 30.148 19.4787 30.1412C19.5987 30.1355 19.6451 30.0951 19.6881 30.1275C19.7669 30.1873 19.662 30.3633 19.6463 30.676C19.6376 30.8542 19.662 30.9875 19.6881 31.1288C19.7171 31.2848 19.7536 31.475 19.8696 31.6915C19.9386 31.8202 19.9955 31.9255 20.1213 32.0206C20.2756 32.1374 20.4363 32.1642 20.4983 32.1716C20.6375 32.1881 20.7437 32.163 20.8196 32.1442C21.0302 32.0918 21.1705 31.9893 21.239 31.9386C21.446 31.7837 21.5516 31.6089 21.616 31.4995C21.7708 31.2375 21.8149 31.0035 21.8393 30.8685C21.9083 30.4869 21.8538 30.1868 21.8393 30.1139C21.8178 30.0045 21.6989 29.6736 21.4762 29.2909C21.3718 29.1121 21.2773 28.9697 21.2175 28.9583C21.2616 28.9469 21.3608 28.9201 21.4901 28.8934C21.6635 28.8575 21.7848 28.7624 21.8532 28.7014C22.0011 28.5699 22.062 28.4269 22.1328 28.2623C22.2198 28.059 22.2505 27.8921 22.2725 27.7685C22.3114 27.5333 22.3114 27.3545 22.3108 27.1386ZM19.6388 29.0112C19.5802 29.1024 19.1864 28.956 19.0959 28.9224C18.4289 28.6747 17.9463 28.2344 17.9742 28.194C17.9933 28.1666 18.2096 28.3939 18.6435 28.4782C18.8366 28.5158 19.0298 28.5163 19.2948 28.6205C19.3412 28.6388 19.4561 28.686 19.5483 28.7982C19.5657 28.8193 19.6759 28.9532 19.6388 29.0112ZM20.188 27.0942C20.1184 27.0407 19.8812 26.8584 19.6857 26.5184C19.5593 26.2986 19.4601 26.0446 19.3998 25.8196C19.2908 25.4164 19.2942 25.2062 19.4039 25.0849C19.4961 24.9824 19.7113 25.0496 19.992 25.1253C20.4061 25.2375 20.3034 25.1954 20.8898 25.344C21.2471 25.4346 21.4913 25.475 21.645 25.5901C21.7268 25.6516 21.645 25.5901 21.7018 25.7427C21.7633 25.9084 21.7401 26.1442 21.6821 26.3886C21.5916 26.7718 21.5011 26.896 21.4513 26.9672C21.2709 27.2241 21.087 27.2827 20.9235 27.3237C20.6735 27.3858 20.4212 27.2736 20.188 27.0942ZM22.0811 27.4832C22.0492 27.6489 22.0162 27.8147 21.9182 28.0163C21.8387 28.1797 21.7418 28.3136 21.6287 28.4246C21.5464 28.5061 21.4826 28.567 21.3753 28.6023C21.3411 28.6137 21.1589 28.6729 21.0134 28.5847C20.8933 28.5118 20.866 28.3791 20.8144 28.1228C20.7698 27.9035 20.7477 27.7942 20.7964 27.7144C20.8945 27.5527 21.1555 27.5783 21.402 27.4183C21.5818 27.3021 21.6102 27.1984 21.7186 26.9501C21.9037 26.5269 21.8839 26.2069 21.9535 26.204C22.0243 26.2017 22.0875 26.5241 22.0985 26.5771C22.113 26.65 22.1757 26.9877 22.0811 27.4832Z" fill="#2176C9"/>
<path d="M21.4742 29.2922C21.3837 29.1367 21.3002 29.0092 21.241 28.971C21.2248 28.9642 21.2155 28.9596 21.2155 28.9596C21.1047 28.9072 20.9667 28.8423 20.8374 28.7056C20.6889 28.549 20.6257 28.3764 20.6036 28.3155C20.5387 28.1338 20.5421 27.9982 20.4986 27.9942C20.4644 27.9908 20.4389 28.0723 20.3937 28.1549C20.3937 28.1549 20.2794 28.361 20.0201 28.5102C19.6936 28.6976 19.3096 28.5575 19.2969 28.6196C19.3433 28.6378 19.4581 28.6851 19.5503 28.7973C19.5596 28.8075 19.5683 28.8178 19.5764 28.8309C19.613 28.8804 19.6687 28.967 19.6408 29.0103C19.6408 29.0109 19.6402 29.0109 19.6397 29.0114C19.6576 29.0912 19.6779 29.2028 19.7035 29.3657C19.7719 29.5747 19.762 29.8857 19.7562 29.8407C19.7736 30.04 19.7754 30.1311 19.7151 30.1949C19.7185 30.2843 19.6559 30.4421 19.6443 30.6779C19.6356 30.8561 19.66 30.9894 19.6861 31.1307C19.7151 31.2867 19.7516 31.4769 19.8676 31.6934C19.9366 31.8221 19.9935 31.9274 20.1193 32.0225C20.2736 32.1393 20.4343 32.1661 20.4963 32.1735C20.6355 32.19 20.7417 32.1649 20.8176 32.1461C21.0282 32.0937 21.1685 31.9912 21.237 31.9405C21.444 31.7856 21.5496 31.6108 21.614 31.5014C21.7688 31.2394 21.8129 31.0054 21.8373 30.8704C21.9063 30.4888 21.8518 30.1886 21.8373 30.1157C21.8158 30.0058 21.6969 29.6749 21.4742 29.2922Z" fill="#2176C9"/>
<path d="M18.9399 34.3879C18.8935 33.2278 18.7039 32.8695 18.5821 32.4304C18.5119 32.1764 18.3298 31.7869 17.9702 31.1034C17.5491 30.3032 17.215 29.6688 16.5005 29.2792C16.3439 29.1938 16.0138 29.0189 15.5614 28.9984C15.4588 28.9939 15.2076 28.991 14.663 29.159C13.9995 29.3635 13.5297 29.6283 13.4381 29.6802C12.2931 30.3334 11.513 31.174 11.5397 31.2037C11.5681 31.2356 12.14 30.7065 13.4589 29.9501C13.6312 29.8516 14.3539 29.5344 14.8283 29.4319C15.3967 29.3088 15.6948 29.2764 15.8509 29.3316C15.9471 29.3658 16.4465 29.5811 16.8067 29.9809C17.0758 30.2793 17.2202 30.5123 17.6639 31.4041C18.1917 32.4635 18.4052 33.4641 18.4417 33.6384C18.6615 34.6869 18.7509 35.421 18.487 35.8146C18.433 35.6358 18.3518 35.5025 18.2573 35.3248C18.2062 35.2291 18.1308 35.0628 18.0131 34.9466C17.9539 34.8885 17.8101 34.7837 17.7863 34.8088C17.7614 34.835 17.8751 34.9865 17.9534 35.1312C17.9858 35.191 18.1285 35.4552 18.1517 35.773C18.1639 35.9427 18.1877 36.0538 18.1877 36.0555C18.0363 36.1142 17.8461 36.1324 17.6025 36.1546C17.5178 36.1626 17.429 36.1706 17.3391 36.1734C17.3768 36.1694 17.3844 36.0663 17.1112 35.5498C16.9546 35.2542 16.9343 35.2456 16.7957 35.0429C16.787 35.0303 16.5735 34.8646 16.584 34.9176C16.6147 35.0714 16.718 35.232 16.8432 35.5304C16.9546 35.7941 17.0207 36.0595 17.0439 36.1592C16.9233 36.1404 16.8015 36.1033 16.6832 36.035C16.5219 35.9422 16.4309 35.8294 16.2569 35.6141C16.207 35.552 15.9524 35.3202 15.7743 34.9899C15.5156 34.5104 15.4472 34.3891 15.2355 34.0707C15.076 33.8309 14.9785 33.7358 14.7448 33.6965C14.6421 33.6794 14.3504 33.84 14.1671 34.024C13.978 34.2136 13.8823 34.3088 13.6289 34.6414C13.2525 35.134 12.8627 35.6124 12.8656 35.6141C12.8691 35.6164 13.5355 34.9085 14.1515 34.2911C14.2907 34.1516 14.4838 33.963 14.6729 34.0058C14.8504 34.0456 14.9281 34.2677 15.007 34.4568C15.2964 35.1499 15.7308 35.7087 16.0701 36.0151C16.2371 36.166 16.5353 36.428 16.9888 36.5163C17.2446 36.5658 17.4609 36.5425 17.7034 36.5163C18.0514 36.4787 18.2822 36.4536 18.4997 36.2958C18.741 36.121 18.835 35.8772 18.8877 35.7349C19.0397 35.3271 18.9666 35.0548 18.9399 34.3879Z" fill="#2176C9"/>
<path d="M30.7923 24.0432C30.7709 24.0119 30.7094 23.9265 30.5331 23.8023C30.3724 23.689 30.1485 23.5671 30.1265 23.5961C30.1085 23.6201 30.2547 23.7135 30.4136 23.947C30.5122 24.0916 30.583 24.1959 30.6027 24.3462C30.6265 24.5273 30.6067 24.7147 30.6067 24.7147C30.819 24.6999 30.8254 24.6953 30.9959 24.6407C30.9959 24.6407 30.9692 24.4852 30.9037 24.291C30.8718 24.1959 30.8486 24.1258 30.7923 24.0432Z" fill="#2176C9"/>
<path d="M31.644 23.0733C31.4387 22.8769 31.2867 22.784 31.1394 22.7914C31.0797 22.7943 31.4399 23.0284 31.6017 23.4521C31.7409 23.8166 31.7409 23.8166 31.7235 24.1093C31.7188 24.1834 31.876 23.8701 31.941 23.554C31.9746 23.3934 31.7606 23.185 31.644 23.0733Z" fill="#2176C9"/>
<path d="M30.3069 15.7725L30.2077 16.1444C30.1648 16.3727 30.4287 16.334 30.7749 16.3443C31.2018 16.3568 31.1867 16.3881 31.2018 16.3614C31.2169 16.3346 30.5586 16.0663 30.3069 15.7725Z" fill="#2176C9"/>
<path d="M31.0727 14.9542C30.8963 14.7065 31.017 14.4952 30.9468 14.4775L30.6719 14.9269C30.6991 15.3017 31.731 15.6565 31.731 15.6565C31.7658 15.6183 31.3006 15.2743 31.0727 14.9542Z" fill="#2176C9"/>
<path d="M46.8929 31.9917C46.8929 31.9917 46.7473 32.0099 46.6081 32.015C45.5374 32.0521 44.6889 31.5429 44.6889 31.5429C44.5271 31.433 43.943 31.1317 43.142 30.3406C42.5267 29.7324 41.8353 28.8701 40.7553 27.6593C39.7809 26.5669 39.5634 26.3066 39.0449 26.0321C38.6412 25.8185 37.9435 25.4626 37.2278 25.7172C36.6913 25.9079 36.4065 26.2223 36.2888 26.4063C36.2279 26.5014 35.8729 26.9849 36.0092 27.7988C36.0933 28.3017 36.3062 28.9293 36.6397 29.3388C37.6599 30.5918 38.7491 31.5617 39.5791 32.2782C40.1394 32.7611 41.0755 33.4622 41.0755 33.4622C41.0755 33.4622 40.6817 33.2908 40.3818 33.1666C40.2937 33.1302 39.865 32.9177 39.8123 32.8864C38.6383 32.1916 38.0827 32.1728 38.0827 32.1728C37.6721 32.0612 36.631 31.8761 35.3834 32.0942C34.4577 32.256 33.684 32.6979 33.3673 32.9212C32.999 33.1809 32.4695 33.7248 31.9625 34.6132C31.2387 35.8839 31.3599 37.1573 31.455 38.1557C31.5594 39.2544 31.9927 40.4082 31.9852 40.3336C31.9277 39.7481 31.6963 38.9707 31.7526 37.0343C31.7804 36.061 31.9817 35.5757 32.2032 35.0854C32.5251 34.3729 33.0164 33.9082 33.2188 33.7208C33.3864 33.5653 33.7774 33.2253 34.3678 32.9337C34.5499 32.8437 35.116 32.5783 35.9176 32.4615C36.5677 32.367 37.2707 32.3328 38.1894 32.5925C40.4039 33.219 41.6903 33.8785 41.6903 33.8785C41.6903 33.8785 41.1312 33.1792 39.8465 32.0156C39.1853 31.417 38.7294 31.0223 38.0293 30.3361C37.4899 29.8075 37.0567 29.4299 36.6855 28.6742C36.5521 28.4025 36.4436 28.1069 36.3937 27.8244C36.501 27.9235 36.6124 28.0403 36.7081 28.1115C36.8131 28.1889 37.1443 28.2812 37.1617 28.247C37.1843 28.2026 36.8833 28.1206 36.7081 27.8569C36.5382 27.6012 36.4164 27.3397 36.3995 27.1848C36.4343 27.0071 36.4378 26.8642 36.624 26.6352C36.6617 26.7212 36.7035 26.6985 36.9674 26.9821C37.2701 27.3079 37.4354 27.3699 37.4406 27.3659C37.4656 27.3472 37.2168 27.1165 37.0636 26.6905C37.0004 26.5145 36.8705 26.4012 36.9256 26.314C37.0254 26.236 37.1605 26.15 37.3339 26.0862C37.7875 25.9199 38.1854 26.0224 38.3228 26.06C38.6528 26.15 39.0188 26.3562 39.3599 26.6717C39.9468 27.2139 40.4294 27.7179 40.5953 27.9269C40.7901 28.1724 41.0761 28.5158 42.0023 29.5831C42.8723 30.5849 43.0046 30.7319 43.4204 31.0389C44.1692 31.5913 45.0195 31.9974 45.69 32.0828C46.3605 32.1677 46.9753 32.0202 47.3238 31.9102C47.2067 31.9387 47.0594 31.9706 46.8929 31.9917Z" fill="#2176C9"/>
<path d="M11.1865 42.8964C10.9481 42.6543 10.6297 42.4749 10.2817 42.4584C9.8821 42.439 9.5341 42.6293 9.19248 42.8075C8.57304 43.1316 7.95824 43.4648 7.34866 43.8065C6.00074 44.5617 4.67834 45.3602 3.38146 46.1974C3.06768 46.4001 2.93486 46.8022 3.13148 47.1325C3.3136 47.439 3.76832 47.5813 4.08384 47.3774C4.68124 46.9919 5.28502 46.6154 5.89344 46.2464C6.42472 47.374 7.47568 48.2192 8.80156 48.1047C9.97838 48.0028 11.1332 47.3393 11.6534 46.268C12.1801 45.1847 12.06 43.782 11.1865 42.8964ZM10.5671 45.1751C10.4372 45.9211 9.84556 46.4685 9.13854 46.6678C8.70238 46.7908 8.2378 46.7885 7.85616 46.5499C7.4983 46.3261 7.2634 45.9246 7.08708 45.5396C8.0116 45.0025 8.94772 44.4854 9.89544 43.9887C9.98998 43.9392 10.0909 43.8948 10.1825 43.8401C10.1825 43.8401 10.1843 43.8395 10.1854 43.8389C10.2545 43.9181 10.4111 44.1647 10.4325 44.2097C10.5711 44.4956 10.6187 44.8772 10.5671 45.1751Z" fill="#EFEFEF"/>
<path d="M15.4869 48.3922C15.6754 47.8534 15.3918 47.3585 14.8634 47.055C14.3083 46.736 13.7005 46.9217 13.1802 47.2076C12.2012 47.7458 11.2523 48.3455 10.3208 48.9583C9.249 49.6628 8.20558 50.4078 7.18942 51.1875C6.89362 51.4147 6.75732 51.7957 6.97192 52.1301C7.15694 52.4182 7.63428 52.572 7.93182 52.3436C8.90912 51.5936 9.91252 50.8771 10.9403 50.1965C10.9739 50.2609 11.0168 50.3224 11.0673 50.3787C11.5522 50.9164 12.1026 51.372 12.7029 51.7804C12.3491 52.662 11.5986 54.0021 11.3045 54.9048C11.1903 55.2562 11.4733 55.6475 11.819 55.7289C12.2082 55.8201 12.5434 55.5763 12.6582 55.2238C12.9958 54.1872 13.8066 52.7201 14.2231 51.7114M13.2446 50.4921C12.8235 50.1902 12.4402 49.8371 12.0904 49.4578C12.3584 49.2904 12.6281 49.1241 12.8995 48.9612C13.273 48.7374 13.6442 48.4606 14.0462 48.2903C14.056 48.2863 14.1036 48.2646 14.1384 48.2567C14.168 48.2493 14.2121 48.2629 14.2254 48.2863C14.2434 48.3182 14.2579 48.3233 14.0705 48.7818" fill="#EFEFEF"/>
<path d="M24.1017 50.5879C23.7299 50.4193 23.3715 50.6044 23.1777 50.9222C22.2405 52.4639 21.2371 54.0797 20.2998 55.6214C20.091 54.8417 20.0318 54.2363 19.9268 53.6514C19.8195 53.0517 19.1253 52.8438 18.6967 53.2829C18.2495 53.7408 17.8023 54.1987 17.3551 54.6566C17.3737 52.8176 17.4903 50.9814 17.7031 49.1521C17.746 48.7859 17.5222 48.4271 17.1365 48.3616C16.7821 48.3012 16.3743 48.5495 16.3314 48.918C16.042 51.4029 15.7027 54.2619 15.7555 56.7622C15.7613 57.0276 15.9979 57.2725 16.2427 57.3431C16.5251 57.4245 16.7844 57.3363 16.9857 57.1301C17.539 56.5634 18.3156 55.6419 18.8689 55.0752C19.1079 55.7957 19.1172 57.7589 19.5342 58.411C19.8387 58.8871 20.4854 58.7009 20.7307 58.2971C21.8901 56.3891 23.2827 53.4014 24.4421 51.494C24.6347 51.1773 24.4172 50.7308 24.1017 50.5879Z" fill="#EFEFEF"/>
<path d="M47.98 53.6062C47.4365 53.117 46.8948 52.3772 46.1524 51.5121C47.016 50.9169 47.3361 49.8564 47.2915 48.7965C47.2631 48.112 47.1952 47.4177 46.748 46.8636C46.3739 46.4005 45.8467 45.9569 45.2516 45.8105C43.9089 45.4802 42.5535 46.503 42.5865 47.8756C42.6022 48.518 42.8638 49.1508 43.137 49.7249C43.3811 50.2375 43.6903 50.717 44.036 51.1686C44.8369 52.2143 46.0155 53.6917 46.9945 54.5727C47.2718 54.8222 47.705 54.8416 47.9788 54.5727C48.2375 54.3199 48.2584 53.8563 47.98 53.6062ZM44.4309 47.1586C44.7012 47.0504 44.9872 47.1221 45.2197 47.2913C45.5677 47.5441 45.9227 48.0989 45.9824 48.5226C46.0503 48.9999 45.9534 49.2499 45.8218 49.7175C45.7354 50.0239 45.5109 50.3719 45.2551 50.4698C45.2505 50.4715 45.2464 50.4738 45.2418 50.4755C44.9031 50.0398 44.602 49.5768 44.3596 49.0756C44.0737 48.4867 43.6468 47.4724 44.4309 47.1586Z" fill="#EFEFEF"/>
<path d="M51.6736 48.2706C50.4341 46.8599 49.1802 45.4605 47.9129 44.0737C47.6519 43.7878 47.2557 43.6546 46.9048 43.8921C46.6143 44.0885 46.4571 44.5937 46.7198 44.8813C47.9871 46.2681 49.2405 47.6675 50.4805 49.0782C50.7357 49.3687 51.1423 49.4945 51.4886 49.2599C51.7844 49.06 51.9305 48.5634 51.6736 48.2706Z" fill="#EFEFEF"/>
<path d="M52.5785 49.7568C51.683 49.7568 51.6813 51.1237 52.5785 51.1237C53.4741 51.1237 53.4758 49.7568 52.5785 49.7568Z" fill="#EFEFEF"/>
<path d="M28.8438 55.6026C28.4639 55.1151 27.9808 54.7472 27.4773 54.3895C27.2668 54.2397 27.051 54.0882 26.8811 53.8923C26.8155 53.8166 26.7575 53.7323 26.7152 53.6406C26.7436 53.7015 26.6566 53.3831 26.6682 53.4783C26.6143 53.0557 26.7906 52.6655 27.1937 52.5072C27.3109 52.4611 27.5707 52.4525 27.714 52.4896C27.9413 52.5482 28.077 52.6297 28.2441 52.8222C28.4877 53.1035 28.9778 53.0682 29.2283 52.8222C29.512 52.5437 29.4731 52.1376 29.2283 51.8557C28.4546 50.9638 27.0006 50.8573 26.0847 51.5891C25.1805 52.3113 25.0083 53.7044 25.6996 54.6196C26.3382 55.4659 27.83 55.8561 28.1809 56.9148C28.3131 57.3135 28.2609 57.7458 28.044 58.1245C27.8224 58.5106 27.4524 58.7698 27.0081 58.8808C25.9641 59.1405 24.6904 58.1 24.3981 57.1079C24.1499 56.2644 23.0444 56.6352 23.2944 57.4832C23.6296 58.6206 24.5501 59.6064 25.7449 59.8872C27 60.1817 28.4366 59.8582 29.1338 58.7778C29.8582 57.6546 29.6094 56.5845 28.8438 55.6026Z" fill="#EFEFEF"/>
<path d="M40.9446 56.9847C40.788 56.8867 40.6645 56.8178 40.5235 56.6863C39.9122 56.115 39.4291 55.2926 39.07 54.5442C38.5295 53.4177 37.9831 52.3584 37.4431 51.2318C37.2831 50.8981 36.7947 50.8121 36.4908 50.9869C36.1428 51.1869 36.1869 51.5878 36.3475 51.9233C36.9037 53.0834 37.3602 54.1758 37.9164 55.3359C38.3578 56.2563 38.9656 57.2262 39.7979 57.8703C40.3031 58.261 40.9875 58.6306 41.6191 58.2821C42.1417 57.9939 42.2154 57.3367 42.245 56.7876C42.3128 55.5392 42.2247 54.4628 42.2212 53.3084C42.2212 53.2605 42.2212 53.2121 42.2212 53.1643C42.9392 54.2378 43.7089 55.2778 44.5261 56.2842C44.7604 56.5729 45.2656 56.5245 45.5104 56.2842C45.8009 55.9988 45.7453 55.607 45.5104 55.3177C44.1334 53.6222 42.9108 51.8065 41.843 49.9088C41.7624 49.7266 41.665 49.5483 41.5478 49.3757C41.0519 48.6479 40.0154 49.1906 40.4406 49.9726C40.5137 50.107 40.5137 50.107 40.654 50.5285C40.9081 51.4443 40.9748 51.7729 41.0038 52.5309C41.0339 53.3112 41.0908 53.5601 41.0038 55.1206" fill="#EFEFEF"/>
</g>
</svg>
